<?xml version="1.0" encoding="UTF-8" standalone="no"?>
<svg
  xmlns:dc="http://purl.org/dc/elements/1.1/"
  xmlns:cc="http://creativecommons.org/ns#"
  xmlns:rdf="http://www.w3.org/1999/02/22-rdf-syntax-ns#"
  xmlns:svg="http://www.w3.org/2000/svg"
  xmlns="http://www.w3.org/2000/svg"
  xmlns:sodipodi="http://sodipodi.sourceforge.net/DTD/sodipodi-0.dtd"
  xmlns:inkscape="http://www.inkscape.org/namespaces/inkscape"
  version="1.1"
  id="svg10"
  xml:space="preserve"
  width="43.438667"
  height="42.366489"
  viewBox="0 0 43.438667 42.366489"
  sodipodi:docname="GitHub-Mark.svg"
  inkscape:version="1.0.2 (e86c8708, 2021-01-15)"
>
  <metadata id="metadata16">
    <rdf:RDF
      ><cc:Work rdf:about=""
        ><dc:format>image/svg+xml</dc:format
        ><dc:type
          rdf:resource="http://purl.org/dc/dcmitype/StillImage" /><dc:title></dc:title></cc:Work
    ></rdf:RDF>
  </metadata>
  <defs id="defs14" />
  <sodipodi:namedview
    pagecolor="#ffffff"
    bordercolor="#666666"
    borderopacity="1"
    objecttolerance="10"
    gridtolerance="10"
    guidetolerance="10"
    inkscape:pageopacity="0"
    inkscape:pageshadow="2"
    inkscape:window-width="1190"
    inkscape:window-height="875"
    id="namedview12"
    showgrid="false"
    inkscape:zoom="1.0890445"
    inkscape:cx="107.94349"
    inkscape:cy="166.65814"
    inkscape:window-x="998"
    inkscape:window-y="167"
    inkscape:window-maximized="0"
    inkscape:current-layer="g20"
  />
  <g
    id="g18"
    inkscape:groupmode="layer"
    inkscape:label="ink_ext_XXXXXX"
    transform="matrix(1.3333333,0,0,-1.3333333,-181.76,592.72665)"
  >
    <g id="g20" transform="scale(0.1)">
      <path
        d="m 1526.08,4445.45 c -89.94,0 -162.88,-72.93 -162.88,-162.9 0,-71.96 46.67,-133.02 111.4,-154.57 8.15,-1.49 11.12,3.54 11.12,7.86 0,3.87 -0.14,14.11 -0.22,27.7 -45.31,-9.84 -54.87,21.84 -54.87,21.84 -7.41,18.82 -18.09,23.83 -18.09,23.83 -14.79,10.1 1.12,9.9 1.12,9.9 16.35,-1.15 24.95,-16.79 24.95,-16.79 14.53,-24.89 38.13,-17.7 47.41,-13.53 1.48,10.52 5.69,17.7 10.34,21.77 -36.17,4.12 -74.2,18.09 -74.2,80.51 0,17.79 6.35,32.32 16.77,43.71 -1.68,4.12 -7.27,20.68 1.6,43.11 0,0 13.67,4.38 44.79,-16.69 12.99,3.61 26.93,5.41 40.78,5.48 13.84,-0.07 27.77,-1.87 40.78,-5.48 31.1,21.07 44.75,16.69 44.75,16.69 8.89,-22.43 3.3,-38.99 1.63,-43.11 10.44,-11.39 16.74,-25.92 16.74,-43.71 0,-62.58 -38.09,-76.35 -74.37,-80.38 5.84,-5.03 11.05,-14.97 11.05,-30.17 0,-21.77 -0.2,-39.34 -0.2,-44.68 0,-4.36 2.94,-9.43 11.2,-7.84 64.68,21.59 111.31,82.6 111.31,154.55 0,89.97 -72.94,162.9 -162.91,162.9"
        style="fill: #1b1817; fill-opacity: 1; fill-rule: evenodd; stroke: none"
        id="path24"
      />
    </g>
  </g>
</svg>
